<svg xmlns="http://www.w3.org/2000/svg" viewBox="0 0 550 140" style="color:#000000" role="img" aria-label="Enjoy Comfort"><g class="mark"><g fill="none" stroke="currentColor" stroke-width="5.5" stroke-linecap="round" stroke-linejoin="round"><path d="M25 55 L61 27 Q66 23 71 27 L107 55"/><path d="M28 73 C41 115 88 116 105 73"/><path d="M48 78 Q66 94 85 78"/></g><circle cx="66.5" cy="59" r="5" fill="currentColor"/></g><g class="enjoy" fill="currentColor"><path d="M603 218C607 238 608 250 608 270C608 441 487 567 322 567C159 567 30 438 30 275C30 113 161 -13 330 -13C421 -13 492 20 550 87C571 113 585 136 594 164H449C415 124 382 109 327 109C248 109 190 151 174 218ZM170 335C191 407 245 445 324 445C406 445 460 406 477 335Z" transform="translate(139.000 88) scale(0.053 -0.053)"/><path d="M54 0H187V261C187 335 192 367 209 394C230 427 264 445 307 445C342 445 369 433 387 410C405 386 413 345 413 271V0H546V297C546 396 536 444 506 487C470 539 410 567 333 567C269 567 226 549 177 501V554H54Z" transform="translate(172.320 88) scale(0.053 -0.053)"/><path d="M72 554V40C73 -35 66 -48 17 -56V-185C139 -183 209 -101 205 37V554ZM72 614H205V739H72Z" transform="translate(203.520 88) scale(0.053 -0.053)"/><path d="M323 567C162 567 30 436 30 277C30 117 162 -13 324 -13C485 -13 619 117 619 273C619 438 490 567 323 567ZM324 445C413 445 485 370 485 277C485 184 413 109 325 109C235 109 164 184 164 279C164 370 236 445 324 445Z" transform="translate(216.700 88) scale(0.053 -0.053)"/><path d="M105 -185H248L568 554H414L281 195L158 554H6L209 52Z" transform="translate(250.020 88) scale(0.053 -0.053)"/></g><g class="comfort" fill="currentColor"><path d="M524 161C467 85 415 55 336 55C214 55 117 151 117 273C117 396 212 492 334 492C415 492 482 453 524 381H607C563 491 458 560 335 560C171 560 42 434 42 275C42 112 172 -13 340 -13C408 -13 471 8 522 49C557 77 578 104 608 161Z" transform="translate(294.000 88) scale(0.053 -0.053)"/><path d="M329 560C166 560 42 437 42 277C42 108 165 -13 335 -13C495 -13 613 108 613 272C613 439 494 560 329 560ZM329 492C450 492 538 399 538 271C538 145 452 55 333 55C207 55 117 146 117 275C117 399 208 492 329 492Z" transform="translate(327.691 88) scale(0.053 -0.053)"/><path d="M63 0H137V319C137 428 192 492 284 492C329 492 371 474 398 442C422 414 432 376 432 319V0H506V317C506 370 514 403 532 430C558 469 604 492 656 492C704 492 746 473 771 440C791 413 801 372 801 317V0H875V325C875 397 862 443 831 483C793 532 731 560 660 560C575 560 516 528 470 455C427 529 374 560 291 560C222 560 180 539 137 484V547H63Z" transform="translate(361.806 88) scale(0.053 -0.053)"/><path d="M101 0H175V480H311V547H175C174 639 210 671 311 672V739C170 739 99 674 101 547H16V480H101Z" transform="translate(410.920 88) scale(0.053 -0.053)"/><path d="M329 560C166 560 42 437 42 277C42 108 165 -13 335 -13C495 -13 613 108 613 272C613 439 494 560 329 560ZM329 492C450 492 538 399 538 271C538 145 452 55 333 55C207 55 117 146 117 275C117 399 208 492 329 492Z" transform="translate(426.962 88) scale(0.053 -0.053)"/><path d="M63 0H137V319C136 418 191 479 292 487V560C213 556 166 529 137 469V547H63Z" transform="translate(461.077 88) scale(0.053 -0.053)"/><path d="M130 0H204V480H327V547H204V739H130V547H12V480H130Z" transform="translate(476.430 88) scale(0.053 -0.053)"/></g></svg>